<mxfile host="app.diagrams.net" modified="2023-10-30T12:16:55.044Z" agent="Mozilla/5.0 (Windows NT 10.0; Win64; x64) AppleWebKit/537.36 (KHTML, like Gecko) Chrome/118.0.0.0 Safari/537.36" etag="KWapc4GbFISAR_QaeY3p" version="22.0.8" type="github">
  <diagram name="Страница — 1" id="uuPunn66r2rukF14f9i6">
    <mxGraphModel dx="819" dy="433" grid="1" gridSize="10" guides="1" tooltips="1" connect="1" arrows="1" fold="1" page="1" pageScale="1" pageWidth="827" pageHeight="1169" math="0" shadow="0">
      <root>
        <mxCell id="0" />
        <mxCell id="1" parent="0" />
        <mxCell id="czhev17gwFyfPBeKOFzl-18" value="" style="whiteSpace=wrap;html=1;aspect=fixed;fillColor=none;" vertex="1" parent="1">
          <mxGeometry x="250" y="97.75" width="130.5" height="130.5" as="geometry" />
        </mxCell>
        <mxCell id="czhev17gwFyfPBeKOFzl-29" style="edgeStyle=orthogonalEdgeStyle;rounded=0;orthogonalLoop=1;jettySize=auto;html=1;entryX=0;entryY=0.5;entryDx=0;entryDy=0;" edge="1" parent="1" source="czhev17gwFyfPBeKOFzl-17" target="czhev17gwFyfPBeKOFzl-18">
          <mxGeometry relative="1" as="geometry" />
        </mxCell>
        <mxCell id="czhev17gwFyfPBeKOFzl-17" value="" style="whiteSpace=wrap;html=1;aspect=fixed;fillColor=none;" vertex="1" parent="1">
          <mxGeometry x="81.66" y="109.5" width="107" height="107" as="geometry" />
        </mxCell>
        <mxCell id="2" value="Kiosk" style="whiteSpace=wrap;strokeWidth=1;fillColor=#dae8fc;strokeColor=#6c8ebf;" parent="1" vertex="1">
          <mxGeometry x="105.16" y="146" width="60" height="34" as="geometry" />
        </mxCell>
        <mxCell id="czhev17gwFyfPBeKOFzl-12" value="Rest API" style="rounded=0;whiteSpace=wrap;html=1;fillColor=#fff2cc;strokeColor=#d6b656;" vertex="1" parent="1">
          <mxGeometry x="270" y="120" width="65.25" height="40" as="geometry" />
        </mxCell>
        <mxCell id="czhev17gwFyfPBeKOFzl-14" value="Memcached" style="rounded=0;whiteSpace=wrap;html=1;fillColor=#fff2cc;strokeColor=#d6b656;" vertex="1" parent="1">
          <mxGeometry x="270.25" y="170" width="70" height="38" as="geometry" />
        </mxCell>
        <mxCell id="czhev17gwFyfPBeKOFzl-15" value="" style="shape=actor;whiteSpace=wrap;html=1;" vertex="1" parent="1">
          <mxGeometry x="598.33" y="130" width="13.33" height="23" as="geometry" />
        </mxCell>
        <mxCell id="czhev17gwFyfPBeKOFzl-16" value="&lt;font style=&quot;font-size: 10px;&quot;&gt;Customer&lt;/font&gt;" style="text;html=1;align=center;verticalAlign=middle;resizable=0;points=[];autosize=1;strokeColor=none;fillColor=none;" vertex="1" parent="1">
          <mxGeometry x="11.66" y="160" width="70" height="30" as="geometry" />
        </mxCell>
        <mxCell id="czhev17gwFyfPBeKOFzl-19" value="" style="shape=actor;whiteSpace=wrap;html=1;" vertex="1" parent="1">
          <mxGeometry x="39.99000000000001" y="133" width="13.33" height="20" as="geometry" />
        </mxCell>
        <mxCell id="czhev17gwFyfPBeKOFzl-30" value="" style="endArrow=none;html=1;rounded=0;exitX=1.003;exitY=0.628;exitDx=0;exitDy=0;exitPerimeter=0;" edge="1" parent="1" source="czhev17gwFyfPBeKOFzl-14" target="czhev17gwFyfPBeKOFzl-12">
          <mxGeometry width="50" height="50" relative="1" as="geometry">
            <mxPoint x="380" y="240" as="sourcePoint" />
            <mxPoint x="430" y="190" as="targetPoint" />
            <Array as="points">
              <mxPoint x="360" y="194" />
              <mxPoint x="360" y="140" />
            </Array>
          </mxGeometry>
        </mxCell>
        <mxCell id="czhev17gwFyfPBeKOFzl-34" value="" style="edgeStyle=orthogonalEdgeStyle;rounded=0;orthogonalLoop=1;jettySize=auto;html=1;entryX=1;entryY=0.5;entryDx=0;entryDy=0;" edge="1" parent="1" source="czhev17gwFyfPBeKOFzl-31" target="czhev17gwFyfPBeKOFzl-18">
          <mxGeometry relative="1" as="geometry" />
        </mxCell>
        <mxCell id="czhev17gwFyfPBeKOFzl-31" value="" style="whiteSpace=wrap;html=1;aspect=fixed;fillColor=none;" vertex="1" parent="1">
          <mxGeometry x="451.13" y="108.88" width="108.25" height="108.25" as="geometry" />
        </mxCell>
        <mxCell id="czhev17gwFyfPBeKOFzl-32" value="Backend" style="whiteSpace=wrap;strokeWidth=1;fillColor=#d5e8d4;strokeColor=#82b366;" vertex="1" parent="1">
          <mxGeometry x="475.25000000000006" y="146" width="60" height="34" as="geometry" />
        </mxCell>
        <mxCell id="czhev17gwFyfPBeKOFzl-33" value="&lt;span style=&quot;font-size: 10px;&quot;&gt;Marketing&lt;/span&gt;" style="text;html=1;align=center;verticalAlign=middle;resizable=0;points=[];autosize=1;strokeColor=none;fillColor=none;" vertex="1" parent="1">
          <mxGeometry x="570" y="160" width="70" height="30" as="geometry" />
        </mxCell>
      </root>
    </mxGraphModel>
  </diagram>
</mxfile>
